<svg width="50" height="28" viewBox="0 0 50 28" fill="none" xmlns="http://www.w3.org/2000/svg">
<path d="M20 8.33334H30C35.2593 8.33334 36.7689 0 46.6667 0C48.5076 0 48.5087 2.38419e-06 50 2.38419e-06V5C50 6.84095 48.5076 8.33334 46.6667 8.33334H36.6667C31.349 8.33334 30 13.1667 25 13.1667C20 13.1667 18.651 8.33334 13.3333 8.33334H3.33333C1.49238 8.33334 0 6.84095 0 5V0C1.5755 2.38419e-06 1.49238 2.38419e-06 3.33333 2.38419e-06C13.2444 2.38419e-06 14.7359 8.33334 20 8.33334Z" fill="white"/>
<path d="M20 19.6667H30C35.2593 19.6667 36.7689 28 46.6667 28C48.5076 28 48.5087 28 50 28V23C50 21.159 48.5076 19.6667 46.6667 19.6667H36.6667C31.349 19.6667 30 14.8333 25 14.8333C20 14.8333 18.651 19.6667 13.3333 19.6667H3.33333C1.49238 19.6667 0 21.159 0 23V28C1.5755 28 1.49238 28 3.33333 28C13.2444 28 14.7359 19.6667 20 19.6667Z" fill="white"/>
</svg>
