<svg xmlns="http://www.w3.org/2000/svg" version="1.1" xmlns:xlink="http://www.w3.org/1999/xlink" width="1024" height="1024"><svg width="1024" height="1024" viewBox="0 0 1024 1024" fill="none" xmlns="http://www.w3.org/2000/svg">
<rect width="1024" height="1024" fill="black"></rect>
<path d="M452.194 444H572.791C636.216 444 654.421 344 773.786 344C795.987 344 796 344 813.985 344V404C813.985 426.091 795.987 444 773.786 444H653.189C589.06 444 572.791 502 512.493 502C452.194 502 435.925 444 371.796 444H251.199C228.998 444 211 426.091 211 404V344C230 344 228.998 344 251.199 344C370.724 344 388.71 444 452.194 444Z" fill="white"></path>
<path d="M452.194 580H572.791C636.216 580 654.421 680 773.786 680C795.987 680 796 680 813.985 680V620C813.985 597.909 795.987 580 773.786 580H653.189C589.06 580 572.791 522 512.493 522C452.194 522 435.925 580 371.796 580H251.199C228.998 580 211 597.909 211 620V680C230 680 228.998 680 251.199 680C370.724 680 388.71 580 452.194 580Z" fill="white"></path>
</svg><style>@media (prefers-color-scheme: light) { :root { filter: none; } }
@media (prefers-color-scheme: dark) { :root { filter: none; } }
</style></svg>
